# xmcd
#
# Track frame offsets:
#	150
#	8648
#	24048
#	36860
#	49166
#	70216
#	81986
#	99315
#	108785
#	124989
#	137555
#	146968
#	161354
#	178171
#	191693
#	204553
#	219725
#	239301
#
# Disc length: 3380 seconds
#
# Revision: 0
# Processed by: cddbd v1.5.1PL2 Copyright (c) Steve Scherf et al.
# Submitted via: EasyCDDAExtractor 7.1.2.1
#
DISCID=fa0d3212
DTITLE=Soledad Bravo - Antologia Uno (el Arte de Soledad)
DYEAR=2005
DGENRE=Latin
TTITLE0=Anda Jaleo
TTITLE1=Zorongo
TTITLE2=El Corralero
TTITLE3=Coplas De Martin Fierro
TTITLE4=Volver A Los 17
TTITLE5=Göttingen
TTITLE6=Apelo
TTITLE7=Que Diria El Santo Padre
TTITLE8=Para Bien De La Paloma
TTITLE9=Por Que Los Pobres No Tienen
TTITLE10=Alla Viene Un Corazon
TTITLE11=Cantos De Pilon
TTITLE12=Guitarra
TTITLE13=Coplas De La Amapola
TTITLE14=Nube Blanca
TTITLE15=Es Tan Poco
TTITLE16=Santiago De Chile
TTITLE17=La Era Esta Pariendo Un Corazon
EXTD=
EXTT0=
EXTT1=
EXTT2=
EXTT3=
EXTT4=
EXTT5=
EXTT6=
EXTT7=
EXTT8=
EXTT9=
EXTT10=
EXTT11=
EXTT12=
EXTT13=
EXTT14=
EXTT15=
EXTT16=
EXTT17=
PLAYORDER=
